<svg xmlns="http://www.w3.org/2000/svg" width="1200" height="630" viewBox="0 0 1200 630">
    <defs><linearGradient id="g" x1="0" y1="0" x2="1" y2="1"><stop stop-color="#10202b"/><stop offset="1" stop-color="#080706"/></linearGradient><pattern id="p" width="42" height="42" patternUnits="userSpaceOnUse"><path d="M0 42L42 0" stroke="#b98b4f" stroke-opacity=".055"/></pattern></defs>
    <rect width="1200" height="630" fill="url(#g)"/><rect width="1200" height="630" fill="url(#p)"/>
    <circle cx="1070" cy="80" r="210" fill="#b98b4f" opacity=".05"/><circle cx="105" cy="560" r="260" fill="#b98b4f" opacity=".04"/>
    <g transform="translate(650 260)" fill="none" stroke="#b98b4f" stroke-width="12" opacity=".82"><circle r="118"/><circle r="56"/><path d="M0-168v45M0 123v45M-168 0h45M123 0h45M-119-119l32 32M87 87l32 32M119-119l-32 32M-87 87l-32 32"/><circle cx="-170" cy="120" r="45"/><circle cx="160" cy="-110" r="34"/></g>
    <text x="70" y="110" fill="#b98b4f" font-family="Georgia,serif" font-size="24" letter-spacing="8">ODYOMUH ÖZEL DOSYA</text>
    <text x="70" y="430" fill="#f6efe5" font-family="Georgia,serif" font-weight="700" font-size="72">ANTİKYTHERA</text>
    <text x="70" y="486" fill="#d6c2a8" font-family="Arial,sans-serif" font-size="26">Gökyüzünü dişlilerle hesaplayan antik makine</text>
    <path d="M70 525h470" stroke="#b98b4f" stroke-width="4"/><text x="70" y="570" fill="#aa9987" font-family="Arial,sans-serif" font-size="18" letter-spacing="4">DİJİTAL TARİH ARŞİVİ / 2026</text>
    </svg>